# xmcd
#
# Track frame offsets:
#	150
#	30870
#	51337
#	70736
#	96548
#	115597
#	131378
#	155652
#	181838
#	211239
#	232686
#	253237
#
# Disc length: 3785 seconds
#
# Revision: 1
# Processed by: cddbd v1.5.2PL0 Copyright (c) Steve Scherf et al.
# Submitted via: audiograbber 1.83.01
#
DISCID=990ec70c
DTITLE=Joe Bonamassa - Dust Bowl
DYEAR=2011
DGENRE=Blues Rock
TTITLE0=Slow Train
TTITLE1=Dust Bowl
TTITLE2=Tennessee Plates (Feat. John Hiatt)
TTITLE3=The Meaning Of The Blues
TTITLE4=Black Lung Heartache
TTITLE5=You Better Watch Yourself
TTITLE6=The Last Matador Of Bayonne
TTITLE7=Heartbreaker (Feat. Glenn Hughes)
TTITLE8=No Love On The Street
TTITLE9=The Whale That Swallowed Jonah
TTITLE10=Sweet Rowena (Feat. Vince Gill)
TTITLE11=Prisoner
EXTD=
EXTT0=
EXTT1=
EXTT2=
EXTT3=
EXTT4=
EXTT5=
EXTT6=
EXTT7=
EXTT8=
EXTT9=
EXTT10=
EXTT11=
PLAYORDER=
